<?xml version="1.0" standalone="no"?>
<!DOCTYPE svg PUBLIC "-//W3C//DTD SVG 20010904//EN"
 "http://www.w3.org/TR/2001/REC-SVG-20010904/DTD/svg10.dtd">
<svg version="1.0" xmlns="http://www.w3.org/2000/svg"
 width="971.000000pt" height="365.000000pt" viewBox="0 0 971.000000 365.000000"
 preserveAspectRatio="xMidYMid meet">
<metadata>
Created by potrace 1.16, written by Peter Selinger 2001-2019
</metadata>
<g transform="translate(0.000000,365.000000) scale(0.100000,-0.100000)"
fill="#ffffff" stroke="none">
<path d="M735 3392 c-217 -26 -435 -236 -435 -419 0 -98 28 -159 117 -254 50
-52 96 -90 132 -109 55 -28 92 -58 199 -162 95 -92 86 -2 92 -963 l5 -850 29
-75 c25 -66 58 -122 106 -183 52 -66 192 -148 284 -167 166 -34 380 73 479
240 74 123 71 86 77 865 l5 700 27 58 c29 61 49 87 68 87 25 0 68 -65 105
-157 92 -231 203 -373 390 -498 78 -52 203 -115 228 -115 7 0 17 -4 23 -9 26
-24 299 -70 415 -71 59 0 184 15 324 40 123 21 161 -103 61 -198 -151 -144
-414 -198 -689 -141 -201 41 -393 -14 -519 -149 -144 -154 -71 -459 137 -577
22 -12 87 -34 145 -48 389 -96 851 -55 1190 106 441 209 737 624 819 1147 19
125 33 356 27 445 -4 52 -2 150 5 231 l13 142 -35 48 c-20 27 -62 116 -94 197
-32 82 -71 169 -87 193 -15 25 -28 47 -28 50 0 8 -76 117 -105 149 -15 17 -37
41 -49 55 -114 132 -366 286 -541 331 -16 4 -55 14 -85 22 -313 83 -718 49
-991 -84 -274 -134 -438 -314 -555 -609 -21 -52 -41 -96 -46 -98 -4 -2 -8 -9
-8 -16 0 -19 -33 -41 -62 -42 -18 -1 -28 3 -28 12 0 8 -8 31 -19 52 -30 61
-43 131 -42 232 1 143 -13 213 -62 309 -70 140 -206 240 -362 269 -56 11 -594
22 -660 14z m2641 -768 c134 -45 199 -131 199 -264 0 -88 -13 -121 -71 -185
-117 -128 -361 -138 -492 -20 -164 148 -108 397 107 468 62 21 195 21 257 1z"/>
<path d="M4875 3278 c-71 -25 -144 -91 -182 -163 -40 -75 -43 -102 -43 -364 0
-175 -5 -281 -14 -336 -8 -44 -11 -85 -8 -91 21 -37 151 -168 195 -196 l52
-33 165 0 c160 0 167 1 215 27 98 52 163 146 171 247 8 86 12 98 46 136 56 64
60 65 341 65 l254 0 27 -26 c36 -37 34 -86 -7 -176 -19 -40 -60 -131 -92 -203
-31 -71 -90 -202 -130 -290 -40 -88 -82 -181 -94 -207 -11 -27 -31 -69 -42
-95 -12 -27 -33 -73 -46 -103 -36 -77 -193 -427 -268 -595 -34 -77 -72 -162
-85 -190 -12 -27 -33 -74 -46 -103 -45 -98 -25 -210 49 -285 65 -64 77 -67
306 -67 245 0 299 12 398 87 62 47 97 123 444 938 33 77 66 154 73 170 8 17
82 190 166 385 83 195 158 369 165 385 8 17 42 95 76 175 33 80 71 168 84 195
60 133 89 288 82 435 -6 140 -40 199 -137 243 -43 20 -74 21 -835 33 -974 15
-1241 16 -1280 2z"/>
<path d="M7415 3249 c-53 -12 -108 -58 -134 -112 -20 -42 -21 -58 -21 -445 0
-439 1 -445 58 -505 57 -60 67 -62 297 -59 319 5 337 19 345 268 5 162 12 184
65 204 12 4 181 10 378 11 422 4 407 8 367 -88 -13 -32 -46 -105 -73 -163 -27
-58 -73 -159 -102 -225 -29 -66 -67 -151 -85 -190 -18 -38 -65 -144 -105 -235
-82 -186 -115 -258 -155 -345 -16 -33 -60 -132 -100 -220 -39 -88 -81 -180
-92 -205 -11 -25 -49 -110 -85 -190 -35 -80 -77 -172 -92 -205 -65 -139 -65
-185 -4 -243 l36 -33 301 3 301 3 47 27 c52 31 58 42 151 263 59 141 309 721
331 770 8 17 33 75 56 130 24 55 78 183 122 285 44 102 104 241 133 310 49
117 164 380 185 425 5 11 33 76 62 145 l53 125 3 189 c4 206 2 226 -29 255
-30 28 -76 29 -1094 41 -489 5 -933 12 -985 14 -52 2 -113 0 -135 -5z"/>
</g>
</svg>
